<?xml version="1.0" standalone="no"?>
<!DOCTYPE svg PUBLIC "-//W3C//DTD SVG 20010904//EN"
 "http://www.w3.org/TR/2001/REC-SVG-20010904/DTD/svg10.dtd">
<svg version="1.0" xmlns="http://www.w3.org/2000/svg"
 width="1350.000000pt" height="468.000000pt" viewBox="0 0 1350.000000 468.000000"
 preserveAspectRatio="xMidYMid meet">
<metadata>
Created by potrace 1.10, written by Peter Selinger 2001-2011
</metadata>
<g transform="translate(0.000000,468.000000) scale(0.100000,-0.100000)"
fill="#000000" stroke="none">
<path d="M0 2340 l0 -2340 6750 0 6750 0 0 2340 0 2340 -6750 0 -6750 0 0
-2340z m7860 2180 c107 -8 219 -25 405 -60 68 -13 360 -89 480 -126 28 -8 64
-19 80 -24 31 -9 112 -40 155 -59 31 -13 54 -28 100 -62 19 -14 42 -29 50 -33
20 -9 44 -24 115 -71 72 -48 94 -61 120 -75 11 -5 54 -32 95 -60 41 -27 102
-66 135 -86 33 -21 110 -70 170 -109 61 -40 144 -94 185 -120 41 -27 134 -87
205 -134 72 -47 134 -88 138 -90 5 -2 92 -59 194 -127 l185 -123 122 6 c153 7
415 -19 666 -68 30 -6 73 -15 95 -19 48 -9 385 -96 429 -110 56 -17 189 -57
271 -81 44 -12 89 -28 100 -36 11 -7 30 -13 42 -13 12 0 37 -6 55 -14 18 -8
94 -35 168 -61 74 -25 151 -53 170 -60 19 -7 62 -24 95 -36 33 -13 64 -27 70
-31 5 -4 16 -8 25 -8 28 -1 59 -37 70 -81 5 -24 13 -150 17 -279 l8 -234 80
-34 c99 -41 118 -59 135 -125 17 -68 27 -725 12 -753 -6 -11 -47 -39 -93 -63
-123 -64 -213 -94 -347 -117 -105 -18 -412 -31 -412 -17 0 216 -9 376 -24 428
-24 80 -76 216 -90 235 -7 8 -21 32 -31 53 -11 22 -56 76 -100 121 -121 124
-222 186 -404 248 -187 63 -474 94 -641 67 -183 -28 -188 -30 -318 -92 -107
-51 -185 -110 -263 -200 -35 -39 -68 -76 -74 -82 -12 -12 -105 -171 -105 -181
0 -4 -13 -34 -28 -68 -26 -57 -44 -109 -77 -231 -29 -103 -44 -277 -45 -508 0
-173 -1 -188 -17 -185 -19 4 -62 65 -82 118 -21 55 -39 157 -47 262 -3 54 -12
102 -18 107 -7 6 -1006 14 -2695 20 -1476 6 -2687 13 -2689 16 -3 3 -9 47 -13
98 -13 154 -26 228 -57 322 -38 114 -48 138 -91 205 -90 140 -200 238 -342
303 -170 78 -259 97 -502 104 -240 8 -365 -10 -564 -81 -182 -66 -357 -223
-440 -396 -93 -194 -108 -281 -120 -699 -5 -147 -12 -246 -18 -248 -12 -4 -45
52 -45 77 0 11 -6 34 -14 52 -28 66 -58 198 -69 308 l-2 25 -250 2 c-238 2
-587 16 -1180 49 -443 24 -469 26 -497 40 -39 20 -77 75 -98 141 -38 125 -51
385 -21 441 9 17 24 20 136 24 96 3 129 7 136 18 5 9 9 253 9 575 0 537 1 561
20 585 l19 25 703 7 c387 3 1385 11 2218 17 833 6 1783 16 2110 21 327 5 732
10 899 10 299 0 305 0 328 -22 13 -12 23 -33 23 -48 0 -14 7 -51 16 -81 15
-48 16 -147 13 -944 -4 -885 -4 -890 16 -890 23 0 19 -148 45 1915 6 492 15
990 20 1105 5 116 9 226 9 246 1 41 53 109 103 135 59 31 405 43 658 24z
m-984 -469 c23 -10 54 -36 70 -57 l29 -37 3 -343 c3 -330 2 -345 -18 -384 -11
-22 -39 -52 -62 -67 l-42 -28 -3350 0 -3351 0 -37 23 c-22 13 -45 40 -58 67
-20 42 -21 54 -18 387 l3 345 25 36 c23 34 49 52 95 68 11 4 1516 7 3345 8
3227 1 3326 0 3366 -18z m4648 -2022 c72 -9 162 -36 261 -76 59 -25 192 -119
256 -183 83 -82 130 -147 176 -241 57 -118 69 -152 87 -257 54 -311 -48 -619
-276 -838 -95 -93 -208 -158 -378 -219 -155 -56 -400 -49 -570 16 -30 11 -64
23 -75 27 -11 3 -40 18 -65 32 -189 112 -304 236 -396 426 -30 61 -54 118 -54
127 0 9 -7 42 -15 74 -18 68 -20 284 -4 364 18 88 27 122 41 159 29 76 103
200 156 263 216 253 524 371 856 326z m-7654 -47 c252 -65 478 -246 602 -482
81 -153 119 -405 86 -574 -17 -92 -65 -229 -98 -286 -17 -28 -30 -53 -30 -57
0 -12 -101 -131 -156 -184 -133 -126 -309 -213 -481 -238 -140 -21 -331 -8
-443 29 -270 91 -494 312 -591 581 -30 83 -59 237 -59 310 0 111 55 323 113
434 17 33 34 62 38 65 3 3 18 23 32 45 39 58 163 180 222 219 27 19 79 48 115
66 36 18 72 36 81 40 21 11 175 49 219 54 77 9 277 -3 350 -22z"/>
<path d="M7707 4205 c-62 -32 -66 -46 -67 -205 0 -230 21 -821 31 -863 7 -27
20 -44 49 -62 35 -22 51 -25 132 -25 51 0 176 -4 278 -9 338 -17 911 -34 1210
-36 l105 0 3 159 c1 97 7 165 13 173 8 9 39 13 99 13 81 0 90 -2 128 -30 42
-30 46 -38 60 -125 l7 -50 70 0 c66 0 70 1 73 24 4 28 -79 112 -263 266 -185
155 -560 425 -589 425 -3 0 -24 13 -48 28 -99 66 -398 211 -503 244 -186 58
-390 88 -598 88 -123 0 -169 -4 -190 -15z"/>
<path d="M9025 4150 c-12 -19 -20 -13 350 -293 243 -183 421 -320 455 -346 57
-46 425 -324 458 -346 33 -23 46 -25 144 -25 59 0 109 4 112 9 8 13 -26 40
-184 146 -80 54 -219 148 -310 210 -91 61 -257 174 -370 250 -113 76 -278 188
-367 249 -220 150 -270 175 -288 146z"/>
<path d="M9752 3038 c-18 -18 -15 -38 6 -39 109 -8 151 2 139 35 -5 12 -20 16
-70 16 -36 0 -68 -5 -75 -12z"/>
<path d="M710 2791 c-15 -29 -13 -303 3 -323 6 -9 32 -18 56 -21 24 -3 47 -9
51 -14 4 -4 10 -45 13 -89 7 -98 -1 -113 -63 -121 -25 -3 -51 -10 -57 -16 -16
-12 -18 -269 -3 -298 9 -16 22 -19 83 -19 44 0 78 5 85 12 9 9 12 96 12 330 0
310 -1 319 -25 393 -27 85 -61 139 -102 166 -35 24 -40 24 -53 0z"/>
<path d="M2019 2564 c-22 -24 -24 -33 -24 -135 0 -160 -10 -153 254 -157 l209
-3 28 25 c29 24 29 25 29 141 0 162 13 154 -261 155 l-211 0 -24 -26z"/>
<path d="M7656 2574 c-18 -18 -21 -76 -6 -105 10 -18 24 -19 324 -19 239 0
316 3 324 13 21 25 24 64 8 96 l-17 31 -309 0 c-267 0 -311 -2 -324 -16z"/>
<path d="M12140 2575 c-24 -28 1 -64 122 -178 304 -284 335 -300 568 -285 187
12 180 6 179 166 0 70 -4 160 -8 201 -12 119 19 111 -451 111 -340 0 -399 -2
-410 -15z"/>
<path d="M468 1739 c-16 -9 -18 -27 -18 -148 0 -150 9 -191 49 -234 49 -53 65
-57 259 -57 155 0 181 2 186 16 3 9 6 103 6 209 0 163 -3 196 -16 209 -13 14
-48 16 -232 16 -129 0 -224 -5 -234 -11z"/>
<path d="M12938 1618 c-48 -37 -61 -194 -23 -273 26 -52 53 -53 77 -5 26 54
25 207 -3 254 -23 40 -28 42 -51 24z"/>
<path d="M300 3745 c0 -26 13 -32 80 -37 l35 -3 5 -160 5 -160 35 0 35 0 5
160 5 160 35 3 c67 5 80 11 80 37 l0 25 -160 0 -160 0 0 -25z"/>
<path d="M667 3764 c-10 -10 -8 -356 2 -372 5 -8 21 -12 37 -10 l29 3 0 190 0
190 -30 3 c-17 2 -34 0 -38 -4z"/>
<path d="M774 3755 c-11 -27 16 -45 67 -45 l49 0 0 -153 c0 -161 4 -177 46
-177 38 0 43 20 46 176 l3 149 47 3 c49 3 74 22 64 47 -4 12 -31 15 -161 15
-130 0 -157 -3 -161 -15z"/>
<path d="M1205 3758 c-38 -21 -66 -53 -86 -97 -27 -61 -24 -117 9 -182 35 -70
83 -99 165 -99 89 0 144 33 177 108 40 91 15 197 -61 252 -38 27 -49 30 -113
30 -39 0 -80 -6 -91 -12z m164 -72 c32 -34 45 -99 30 -158 -14 -61 -46 -88
-104 -88 -36 0 -48 5 -73 34 -53 61 -54 156 -2 208 39 38 115 40 149 4z"/>
<path d="M1749 3747 c-109 -73 -109 -273 0 -341 33 -21 53 -26 104 -26 55 0
70 4 105 29 39 29 71 89 57 111 -3 5 -20 10 -36 10 -23 0 -32 -6 -40 -27 -32
-85 -146 -85 -179 1 -18 49 -12 130 13 167 20 30 28 34 74 37 46 3 53 0 77
-28 19 -24 33 -31 53 -28 52 6 36 58 -29 101 -42 27 -155 24 -199 -6z"/>
<path d="M2129 3746 c-46 -32 -64 -59 -77 -122 -9 -39 -8 -62 2 -100 17 -66
31 -86 81 -117 73 -46 191 -32 247 30 49 54 62 158 28 228 -40 84 -75 105
-172 105 -61 0 -79 -4 -109 -24z m178 -58 c32 -35 43 -63 43 -108 0 -88 -43
-140 -116 -140 -35 0 -47 5 -73 35 -27 32 -31 43 -31 96 0 63 18 111 47 128
10 6 39 11 64 11 35 0 50 -5 66 -22z"/>
<path d="M2477 3756 c-10 -27 -7 -338 4 -358 7 -13 19 -18 37 -16 l27 3 3 108
c1 59 6 107 10 107 17 -1 36 -21 70 -76 73 -118 95 -144 124 -144 44 0 49 23
46 212 l-3 173 -35 0 -35 0 -3 -112 c-1 -62 -6 -113 -11 -113 -4 0 -40 52 -81
115 -72 113 -73 115 -110 115 -24 0 -40 -5 -43 -14z"/>
<path d="M2903 3744 c-28 -22 -33 -32 -33 -69 0 -24 3 -51 7 -60 7 -20 98 -65
131 -65 32 0 78 -25 86 -47 11 -26 -36 -63 -80 -63 -26 0 -44 9 -71 35 -37 36
-57 42 -82 26 -23 -15 5 -69 50 -97 31 -19 52 -24 104 -24 99 0 154 42 155
116 0 62 -27 90 -113 115 -95 27 -117 39 -117 60 0 23 29 39 72 39 39 0 51 -7
67 -37 14 -26 68 -32 77 -9 7 19 -13 56 -45 83 -22 19 -38 22 -101 23 -66 0
-79 -3 -107 -26z"/>
<path d="M3202 3743 c3 -26 7 -28 58 -33 l55 -5 5 -160 5 -160 30 0 30 0 5
160 5 160 52 3 c54 3 80 21 69 47 -4 12 -31 15 -161 15 l-156 0 3 -27z"/>
<path d="M3547 3763 c-11 -11 -8 -342 3 -364 16 -29 58 -25 71 7 5 15 7 35 3
46 -3 10 -3 37 1 58 6 37 9 40 40 40 35 0 89 -45 101 -84 4 -12 18 -36 32 -53
19 -26 32 -33 58 -33 29 0 34 3 34 24 0 13 -7 29 -15 36 -8 7 -15 17 -15 22 0
6 -14 28 -32 50 l-32 41 26 22 c56 48 65 114 22 164 l-26 31 -132 0 c-73 0
-136 -3 -139 -7z m231 -65 c19 -19 14 -55 -10 -72 -23 -16 -137 -23 -140 -8
-4 22 -6 69 -3 80 6 16 136 17 153 0z"/>
<path d="M3924 3755 c-4 -8 -4 -71 -2 -138 5 -141 20 -186 70 -217 46 -28 144
-28 191 0 57 34 68 74 65 230 l-3 135 -35 0 -35 0 -5 -143 c-5 -136 -6 -145
-29 -163 -32 -26 -82 -25 -109 4 -19 21 -22 35 -24 162 l-3 140 -38 3 c-27 2
-39 -1 -43 -13z"/>
<path d="M4381 3747 c-94 -62 -109 -229 -28 -315 36 -38 72 -52 139 -52 58 0
66 3 106 38 32 27 44 47 49 75 6 37 5 37 -29 37 -30 0 -38 -5 -48 -30 -35 -83
-140 -80 -176 6 -20 47 -17 108 6 153 22 44 35 51 94 51 36 0 46 -5 65 -31 18
-24 29 -30 54 -27 27 3 32 7 29 28 -1 14 -18 39 -40 57 -35 31 -42 33 -112 32
-60 0 -82 -5 -109 -22z"/>
<path d="M4752 3735 c-56 -49 -78 -122 -61 -203 16 -71 32 -98 81 -128 53 -34
143 -34 197 0 39 25 77 87 67 112 -9 23 -63 18 -77 -8 -23 -46 -52 -68 -86
-68 -45 0 -69 14 -88 50 -21 41 -20 148 2 180 24 36 33 40 85 40 41 0 49 -4
68 -30 17 -23 29 -30 56 -30 29 0 34 3 34 23 -1 25 -23 54 -62 80 -20 12 -48
17 -101 17 -70 0 -76 -2 -115 -35z"/>
<path d="M5097 3763 c-11 -11 -8 -342 3 -364 13 -24 56 -25 68 -1 12 21 10
342 -1 360 -9 13 -59 17 -70 5z"/>
<path d="M5299 3745 c-75 -49 -102 -175 -56 -265 33 -67 87 -99 165 -100 55 0
70 4 112 32 58 38 80 85 80 171 0 74 -27 129 -80 162 -56 35 -168 35 -221 0z
m184 -59 c35 -35 52 -105 37 -153 -20 -61 -56 -93 -106 -93 -77 0 -121 63
-112 162 7 71 45 108 109 108 37 0 53 -5 72 -24z"/>
<path d="M5654 3757 c-2 -7 -3 -94 -2 -192 l3 -180 30 0 30 0 3 110 c1 60 6
113 11 118 4 4 39 -41 78 -100 81 -124 92 -136 130 -131 l28 3 0 190 0 190
-35 0 -35 0 -3 -107 c-1 -60 -7 -108 -12 -108 -5 0 -22 19 -36 43 -101 162
-114 177 -150 177 -19 0 -37 -6 -40 -13z"/>
<path d="M6034 3757 c-2 -7 -3 -94 -2 -192 l3 -180 141 -3 c117 -2 143 0 154
13 10 12 10 18 0 30 -9 10 -39 15 -113 17 l-102 3 0 50 0 50 92 3 c94 3 120
14 103 42 -6 10 -36 16 -102 20 l-93 5 0 45 0 45 97 3 c99 3 127 14 114 47 -4
12 -30 15 -146 15 -105 0 -142 -3 -146 -13z"/>
<path d="M6422 3742 c-84 -79 -28 -170 120 -196 77 -14 101 -68 42 -94 -46
-22 -82 -15 -121 23 -38 37 -63 44 -82 21 -18 -22 3 -62 48 -91 75 -47 218
-27 251 35 17 32 12 95 -10 123 -19 23 -69 45 -145 62 -30 7 -65 31 -65 46 0
19 35 39 68 39 43 0 55 -7 71 -37 9 -17 21 -23 46 -23 30 0 35 3 35 25 0 15
-14 38 -37 60 -35 34 -38 35 -113 35 -72 0 -80 -2 -108 -28z"/>
<path d="M11283 1706 l-33 -15 26 -63 c62 -154 83 -179 130 -163 31 11 32 13
73 120 36 92 38 110 14 120 -39 15 -177 16 -210 1z"/>
<path d="M11022 1596 c-52 -39 -112 -102 -112 -118 0 -7 49 -37 127 -80 82
-44 143 -32 143 28 0 51 -64 214 -84 214 -8 0 -41 -20 -74 -44z"/>
<path d="M11647 1603 c-9 -21 -26 -69 -38 -107 -20 -62 -21 -71 -8 -95 25 -44
70 -40 168 17 47 26 86 53 88 59 9 25 -145 163 -180 163 -8 0 -21 -17 -30 -37z"/>
<path d="M10822 1327 c-17 -20 -42 -126 -42 -178 0 -59 13 -71 65 -59 22 5 60
12 85 15 107 13 143 76 76 132 -19 15 -66 45 -104 66 -56 30 -72 34 -80 24z"/>
<path d="M11311 1319 c-46 -14 -124 -94 -139 -145 -16 -54 -15 -81 3 -136 59
-173 296 -202 395 -48 60 94 50 195 -28 276 -57 58 -143 78 -231 53z"/>
<path d="M11843 1287 c-85 -50 -113 -74 -113 -98 0 -62 35 -77 235 -102 18 -2
20 5 23 63 4 86 -24 180 -53 179 -11 0 -52 -20 -92 -42z"/>
<path d="M10968 959 c-27 -5 -69 -12 -95 -17 -42 -6 -48 -10 -51 -34 -6 -47
88 -201 119 -196 28 5 149 157 149 188 0 51 -46 73 -122 59z"/>
<path d="M11718 955 c-43 -24 -39 -75 9 -134 65 -79 96 -111 109 -111 17 0 77
85 104 147 29 68 21 77 -77 92 -41 6 -85 13 -97 16 -11 3 -33 -2 -48 -10z"/>
<path d="M11179 742 c-73 -83 -104 -124 -104 -140 0 -21 88 -65 164 -82 44
-10 55 -10 63 1 5 8 7 63 6 122 -3 94 -6 111 -22 123 -35 25 -71 17 -107 -24z"/>
<path d="M11494 772 c-25 -16 -34 -56 -34 -145 0 -116 7 -126 78 -106 65 18
145 54 160 72 11 13 2 27 -54 91 -37 43 -75 81 -85 86 -21 12 -50 13 -65 2z"/>
<path d="M3561 1680 c-24 -5 -46 -11 -48 -14 -8 -8 51 -171 75 -203 48 -67 98
-37 143 87 44 121 43 117 22 123 -38 12 -150 15 -192 7z"/>
<path d="M3307 1591 c-15 -10 -52 -40 -82 -67 -70 -62 -72 -84 -10 -114 24
-12 61 -33 82 -47 90 -61 177 -3 129 85 -8 15 -24 54 -36 87 -19 53 -34 76
-50 74 -3 0 -18 -9 -33 -18z"/>
<path d="M3906 1588 c-9 -12 -16 -32 -16 -45 0 -12 -4 -24 -9 -27 -11 -7 -41
-98 -41 -124 0 -28 35 -55 70 -54 17 0 53 14 80 31 28 17 53 31 56 31 15 0 64
43 64 55 0 27 -148 155 -179 155 -6 0 -17 -10 -25 -22z"/>
<path d="M3075 1290 c-36 -40 -59 -215 -30 -226 25 -10 176 15 209 34 22 13
32 27 34 49 4 39 -11 53 -116 115 -77 44 -81 46 -97 28z"/>
<path d="M3561 1289 c-54 -22 -107 -77 -129 -134 -28 -72 -27 -90 2 -156 42
-95 108 -139 206 -139 91 0 161 46 199 130 52 115 -1 245 -122 298 -33 14
-122 15 -156 1z"/>
<path d="M4156 1293 c-10 -10 -94 -60 -123 -72 -32 -14 -56 -56 -49 -84 3 -13
20 -31 38 -40 44 -23 204 -47 218 -33 14 14 12 74 -4 132 -8 27 -17 61 -20 77
-5 20 -12 27 -30 27 -12 0 -26 -3 -30 -7z"/>
<path d="M3240 930 c-14 -4 -43 -8 -66 -9 -23 -1 -56 -6 -73 -12 -31 -11 -32
-14 -26 -47 11 -61 88 -181 115 -182 22 0 160 167 160 193 0 14 -57 67 -72 66
-7 -1 -24 -5 -38 -9z"/>
<path d="M3968 924 c-27 -14 -33 -28 -29 -68 2 -24 130 -176 147 -176 17 0 67
68 104 141 39 76 31 86 -80 99 -47 6 -92 13 -100 15 -8 2 -27 -3 -42 -11z"/>
<path d="M3427 708 c-74 -81 -109 -128 -104 -141 10 -28 190 -96 221 -84 13 5
16 25 16 117 0 97 -2 112 -20 130 -33 33 -68 26 -113 -22z"/>
<path d="M3739 731 c-21 -17 -24 -30 -27 -100 -2 -45 -1 -98 3 -117 6 -36 7
-36 46 -30 57 9 146 45 176 70 l25 22 -67 79 c-38 44 -73 83 -79 87 -20 13
-53 8 -77 -11z"/>
</g>
</svg>
